<?xml version="1.0" standalone="no"?>
<!DOCTYPE svg PUBLIC "-//W3C//DTD SVG 20010904//EN"
 "http://www.w3.org/TR/2001/REC-SVG-20010904/DTD/svg10.dtd">
<svg version="1.0" xmlns="http://www.w3.org/2000/svg"
 width="820.000000pt" height="820.000000pt" viewBox="0 0 820.000000 820.000000"
 preserveAspectRatio="xMidYMid meet">
<metadata>
Created by potrace 1.14, written by Peter Selinger 2001-2017
</metadata>
<g transform="translate(0.000000,820.000000) scale(0.100000,-0.100000)"
fill="#000000" stroke="none">
<path d="M650 3695 l0 -2095 23 -1 c119 -3 551 1 556 6 3 4 6 453 6 998 l1
992 42 0 c23 0 42 4 42 8 0 4 9 3 20 -3 11 -6 20 -7 20 -3 0 4 34 6 75 3 42
-3 83 -2 93 1 9 4 27 3 39 -2 12 -5 24 -5 27 0 3 4 27 5 53 1 27 -3 60 -3 73
0 14 3 42 3 63 -1 20 -3 37 -4 37 0 0 6 58 5 95 -2 11 -2 32 -1 47 4 15 4 30
4 33 -1 3 -4 20 -4 39 0 19 4 40 4 46 0 7 -4 26 -4 41 0 16 5 31 5 34 0 3 -4
20 -4 39 0 19 4 40 4 46 0 7 -4 26 -4 41 0 16 5 31 5 34 0 3 -4 20 -4 39 0 19
4 40 4 46 0 7 -4 26 -4 41 0 16 5 31 5 34 0 3 -4 20 -5 38 -1 18 5 41 6 52 5
11 -2 45 -4 75 -4 97 1 123 -1 132 -6 4 -3 8 -2 8 3 0 9 78 9 86 0 3 -3 18 -2
34 3 18 5 32 4 39 -3 14 -14 13 -28 15 249 l1 231 -843 -1 c-464 -1 -851 2
-860 5 -16 6 -17 52 -16 615 1 335 2 611 3 614 1 3 428 5 951 4 l950 -1 0 239
0 238 -1245 0 -1245 0 0 -2095z"/>
<path d="M4635 5758 c-8 -18 -58 -143 -111 -278 -53 -135 -101 -256 -107 -270
-5 -14 -11 -29 -13 -35 -3 -13 -142 -364 -154 -390 -5 -11 -38 -94 -74 -185
-35 -91 -99 -253 -141 -360 -43 -107 -78 -201 -78 -207 0 -7 -4 -13 -8 -13 -4
0 -10 -12 -14 -27 -7 -30 -28 -81 -51 -126 -8 -16 -14 -33 -14 -38 0 -9 -138
-364 -160 -414 -5 -11 -19 -45 -30 -75 -11 -30 -25 -64 -30 -75 -5 -11 -48
-119 -96 -240 -104 -266 -101 -258 -103 -267 -1 -5 -13 -34 -27 -65 -14 -32
-27 -65 -29 -73 -4 -15 -67 -176 -85 -215 -22 -48 -200 -506 -206 -529 -3 -14
-10 -26 -15 -26 -5 0 -8 -3 -7 -7 2 -8 -39 -123 -73 -201 -10 -23 -15 -42 -11
-43 10 0 519 0 573 0 44 1 47 3 53 32 3 17 12 45 20 62 18 42 41 102 65 174
11 32 25 72 32 88 7 17 13 32 13 35 1 6 24 65 36 95 5 11 23 61 40 110 17 50
35 99 40 110 13 29 110 294 121 333 6 17 15 32 22 33 7 1 446 2 975 3 633 0
966 -2 971 -9 5 -5 15 -30 24 -55 8 -25 43 -119 77 -210 33 -91 63 -172 65
-180 7 -24 227 -615 230 -618 5 -6 595 -5 601 1 4 4 -63 186 -97 262 -4 11
-18 45 -29 75 -11 30 -25 64 -30 75 -5 11 -25 63 -45 115 -21 52 -43 109 -50
125 -7 17 -18 46 -25 65 -7 19 -18 49 -25 65 -21 48 -125 316 -125 321 0 2 -9
23 -19 47 -10 23 -51 125 -91 227 -81 210 -89 228 -101 252 -5 10 -9 22 -9 28
0 5 -11 33 -24 62 -13 29 -38 91 -56 138 -18 47 -37 96 -43 110 -6 14 -11 27
-12 30 -4 11 -17 46 -25 65 -5 11 -29 74 -55 140 -26 66 -51 129 -56 140 -4
11 -38 97 -75 190 -132 338 -275 700 -284 720 -11 24 -154 388 -155 395 -1 3
-9 22 -18 44 -9 21 -17 40 -17 42 0 4 -85 221 -103 264 -6 14 -24 61 -41 105
l-31 80 -333 3 -332 2 -15 -32z m383 -633 c21 -55 43 -109 47 -120 4 -11 9
-24 11 -30 1 -5 28 -75 59 -155 31 -80 58 -149 59 -155 2 -5 8 -23 15 -40 7
-16 42 -106 77 -200 36 -93 83 -217 105 -275 23 -58 54 -141 71 -185 17 -44
34 -89 38 -100 12 -30 23 -59 26 -70 1 -5 14 -36 28 -67 14 -32 23 -58 20 -58
-4 0 -2 -6 3 -12 9 -12 47 -106 48 -118 0 -5 60 -159 77 -200 6 -14 14 -34 18
-45 4 -11 17 -44 29 -74 12 -29 21 -59 21 -65 0 -8 -215 -11 -790 -11 -435 0
-790 3 -790 6 0 10 21 72 36 106 8 17 14 34 14 37 0 8 89 238 100 258 6 10 10
22 10 28 0 8 76 210 115 305 6 17 18 46 25 65 6 19 16 44 20 55 5 11 24 61 43
110 19 50 53 137 75 195 22 58 54 143 72 190 18 47 50 132 72 190 22 58 51
134 65 170 13 36 31 81 39 100 9 19 18 42 20 50 5 21 79 219 81 217 1 -1 19
-47 41 -102z"/>
</g>
</svg>
